<?xml version="1.0" encoding="utf-8"?>
<!-- Generator: Adobe Illustrator 19.2.0, SVG Export Plug-In . SVG Version: 6.00 Build 0)  -->
<svg version="1.1" id="图层_1" xmlns="http://www.w3.org/2000/svg" xmlns:xlink="http://www.w3.org/1999/xlink" x="0px" y="0px"
	 viewBox="0 0 410 100" style="enable-background:new 0 0 410 100;" xml:space="preserve">
<path d="M8.6,3.3h70.6c6.3,0,10.9,0.9,13.7,2.8c2.8,1.9,4.2,4.8,4.2,8.9v0.4c0,3.9-1.4,6.8-4.2,8.7c-2.9,1.9-7.5,2.8-13.7,2.8H23.1
	c-3.7,0-6.5,0.8-8.2,2.5c-1.7,1.7-2.5,4.4-2.5,8.1v56.9c0,1.8-1.2,2.7-3.7,2.7S5,96.3,5,94.5V36.7C5,30.4,6.4,25.8,9.3,23
	c2.8-2.8,7.4-4.2,13.8-4.2H79c3.7,0,6.4-0.2,8.3-0.6c1.7-0.3,2.6-0.9,2.6-1.6v-3c0-0.7-0.9-1.2-2.6-1.5c-1.8-0.3-4.6-0.5-8.3-0.5
	H8.6c-1.8,0-2.7-1.4-2.7-4.1C5.9,4.7,6.8,3.3,8.6,3.3z M25.5,34.1v39.1h10.8c3.7,0,6.5-0.9,8.2-2.7c1.8-1.7,2.7-4.5,2.7-8.2v-28
	c0-1.9,1.2-2.9,3.7-2.9s3.7,1,3.7,2.9v28.8c0,6.3-1.4,10.9-4.3,13.7C47.6,79.6,43,81,36.7,81H25.9v3.3c0,1.7,0.6,2.9,1.9,3.6
	c1.3,0.7,3.5,1.1,6.5,1.1h17.5c1.8,0,2.7,1.2,2.7,3.6c0,2.4-0.9,3.6-2.7,3.6H36.1c-6.3,0-10.9-1.4-13.7-4.3
	c-2.8-2.8-4.2-7.3-4.2-13.5V34.1c0-1.9,1.2-2.9,3.7-2.9C24.3,31.2,25.5,32.2,25.5,34.1z M66.8,33.9v39.3H79c3.7,0,6.5-0.9,8.3-2.7
	c1.7-1.7,2.6-4.5,2.6-8.2V33.5c0-1.9,1.2-2.9,3.6-2.9c2.4,0,3.6,1,3.6,2.9v29.6c0,6.3-1.4,10.9-4.2,13.7c-2.9,2.8-7.4,4.2-13.7,4.2
	H67v3.3c0,1.7,0.7,2.9,2.1,3.6s3.6,1.1,6.7,1.1h18.5c1.8,0,2.7,1.2,2.7,3.6c0,2.4-0.9,3.6-2.7,3.6H77.2c-6.3,0-10.9-1.4-13.7-4.3
	c-2.8-2.8-4.2-7.3-4.2-13.5V33.9c0-1.9,1.3-2.9,3.8-2.9C65.6,31,66.8,32,66.8,33.9z"/>
<path d="M109.8,50.1h87.6c1.8,0,2.7,1.2,2.7,3.6s-0.9,3.6-2.7,3.6h-40.3V74h24.6c3.7,0,6.5-0.1,8.3-0.3c1.7-0.2,2.6-0.5,2.6-0.9v-2
	c0-0.5-0.7-0.9-2.2-1c-1.3-0.1-3.6-0.2-6.9-0.2h-18c-1.9,0-2.9-1.2-2.9-3.7c0-2.4,1-3.6,2.9-3.6h16.4c6.3,0,10.9,0.8,13.7,2.3
	c2.8,1.5,4.2,4,4.2,7.4v0.4c0,3.3-1.4,5.8-4.2,7.3c-2.9,1.5-7.4,2.2-13.7,2.2h-24.8V89h40.5c1.8,0,2.7,1.2,2.7,3.6
	c0,2.4-0.9,3.6-2.7,3.6h-50.7c-6.3,0-10.9-1.1-13.7-3.2c-2.8-2.1-4.2-5.4-4.2-10.1v-5.5c0-2.7-0.4-4.7-1.1-6
	c-0.7-1.2-1.7-1.8-3.1-1.8H119c-1.4,0-2.4,0.6-3,1.8c-0.7,1.2-1,3.2-1,6v16.4c0,1.8-1.2,2.7-3.7,2.7c-2.5,0-3.7-0.9-3.7-2.7V79.2
	c0-5.9,1.1-10.3,3.3-12.9c2.2-2.7,5.8-4,10.7-4h0.4c4.9,0,8.4,1,10.6,3.1c2.2,2.1,3.3,5.4,3.3,10V81c0,2.7,0.6,4.8,1.9,6.1
	c1.3,1.3,3.3,1.9,6.1,1.9h5.9V57.3h-40.1c-1.8,0-2.7-1.2-2.7-3.6S108,50.1,109.8,50.1z M111.2,3.3h84.6c1.8,0,2.7,1.4,2.7,4.1
	c0,2.7-0.9,4-2.7,4H189v0.2c0,4.3-1.4,7.5-4.3,9.4c-2.9,2-7.4,3-13.6,3h-13.9v4.3h24.8c6.3,0,10.9,0.7,13.7,2.2
	c2.8,1.6,4.2,4.1,4.2,7.6v7.4c0,1.9-1.2,2.8-3.6,2.8s-3.6-0.9-3.6-2.8v-6.4c0-1.3-0.9-2.2-2.6-2.8c-1.7-0.5-4.5-0.8-8.3-0.8h-24.6
	V46c0,1.9-1.2,2.8-3.6,2.8s-3.6-0.9-3.6-2.8V35.5h-24.1c-3.8,0-6.5,0.3-8.2,0.8c-1.7,0.6-2.5,1.6-2.5,3V46c0,1.9-1.2,2.8-3.7,2.8
	c-2.5,0-3.7-0.9-3.7-2.8v-7.6c0-3.5,1.4-6.1,4.3-7.7c2.9-1.5,7.5-2.3,13.8-2.3h24.1V24H136c-6.3,0-10.9-1-13.7-2.9
	c-2.8-1.9-4.2-5-4.2-9.3v-0.2h-6.8c-1.8,0-2.7-1.4-2.7-4.1C108.5,4.7,109.4,3.3,111.2,3.3z M125.3,11.6v2c0,1.1,0.8,1.8,2.5,2.3
	c1.7,0.5,4.4,0.7,8.1,0.7h34.9c3.7,0,6.4-0.2,8.1-0.7c1.8-0.5,2.7-1.2,2.7-2.3v-2H125.3z"/>
<path d="M259.7,7v7.6h24.8c6.3,0,10.9,1.4,13.7,4.2c2.8,2.8,4.2,7.4,4.2,13.7v61.1c0,1.8-1.2,2.7-3.6,2.7s-3.6-0.9-3.6-2.7V33.3
	c0-3.7-0.9-6.4-2.6-8.1c-1.8-1.7-4.6-2.6-8.3-2.6h-24.6v7.7h8.3c6.2,0,10.8,1.1,13.6,3.3c2.8,2.3,4.2,5.9,4.2,10.9V45
	c0,4.9-1.4,8.6-4.1,10.9c-2.7,2.3-7.1,3.4-13.1,3.4h-0.2v18.9c0,3.7,0.2,6.4,0.6,8.1c0.4,1.8,1.1,2.7,2,2.7h4c0.9,0,1.6-0.6,2.1-1.9
	c0.5-1.3,0.7-3.3,0.7-5.9V65.9c0-1.9,1.2-2.8,3.6-2.8s3.6,0.9,3.6,2.8v13.9c0,5.7-0.9,9.9-2.8,12.5c-1.9,2.6-4.9,3.9-9,3.9h-0.4
	c-4.1,0-7.1-1.4-8.9-4.3c-1.9-2.8-2.8-7.3-2.8-13.5V59.3h-9.2v19.1c0,6.1-1,10.7-3,13.5c-1.9,2.9-5,4.3-9.3,4.3h-0.4
	c-4.2,0-7.3-1.3-9.2-3.9c-1.9-2.7-2.8-6.8-2.8-12.5V65.9c0-1.9,1.2-2.8,3.6-2.8c2.4,0,3.6,0.9,3.6,2.8v15.3c0,2.7,0.2,4.7,0.5,5.9
	c0.4,1.3,1.1,1.9,2.1,1.9h3.8c1,0,1.7-0.9,2.2-2.7c0.4-1.7,0.6-4.4,0.6-8.1V59.3h-0.2c-5.7,0-9.8-1.1-12.4-3.4
	c-2.5-2.3-3.8-5.9-3.8-10.9v-0.4c0-5,1.4-8.7,4.1-10.9c2.9-2.2,7.4-3.3,13.7-3.3h7.5v-7.7h-24.1c-3.7,0-6.5,0.9-8.2,2.6
	c-1.7,1.7-2.5,4.4-2.5,8.1v60.1c0,1.8-1.2,2.7-3.7,2.7s-3.7-0.9-3.7-2.7V32.5c0-6.3,1.4-10.9,4.3-13.7c2.8-2.8,7.4-4.2,13.8-4.2
	h24.1V7c0-1.9,1.2-2.8,3.6-2.8C258.5,4.2,259.7,5.1,259.7,7z M234.4,42.4v5.7c0,1.5,0.8,2.5,2.5,3.2c1.7,0.7,4.4,1,8.1,1h22.6
	c3.7,0,6.4-0.3,8.1-1c1.8-0.7,2.7-1.7,2.7-3.2v-5.7c0-1.3-0.9-2.3-2.7-3c-1.7-0.7-4.4-1-8.1-1H245c-3.7,0-6.4,0.3-8.1,1
	C235.2,40,234.4,41,234.4,42.4z"/>
<path d="M312.8,18.8c0-5.4,1.4-9.4,4.3-11.8s7.5-3.7,13.8-3.7h56.1c6.3,0,10.9,1.2,13.7,3.7c2.8,2.5,4.2,6.4,4.2,11.8v0.4
	c0,5.4-1.4,9.4-4.2,11.8c-2.9,2.5-7.4,3.7-13.7,3.7h-24.8v1.4c0,0.8,0.3,1.4,1,1.9c0.6,0.5,1.6,0.9,3,1.3l6.1,1.4
	c1.5,0.4,3.2,0.7,5.1,0.9c2.1,0.2,4.5,0.3,7.3,0.3h6.1c4.9,0,8.5,1.4,10.7,4.2s3.3,7.4,3.3,13.7v18.5c0,6.2-1.4,10.7-4.2,13.5
	c-2.9,2.9-7.4,4.3-13.7,4.3h-70.6c-1.8,0-2.7-1.2-2.7-3.6c0-2.4,0.9-3.6,2.7-3.6h70.4c3.7,0,6.5-0.9,8.3-2.7
	c1.7-1.7,2.6-4.4,2.6-8.1V61.5c0-3.7-0.5-6.4-1.4-8.1c-0.9-1.7-2.3-2.5-4.2-2.5h-4.1c-3.1,0-6.2-0.2-9.4-0.6c-3-0.4-6.4-1-10.3-1.8
	l-4.4-1c-2.3-0.5-4.8-0.7-7.3-0.6c-2.8,0.1-6,0.5-9.6,1.2l-30.8,5.2c-1.8,0.4-2.9-0.8-3.4-3.5s0.2-4.3,2-4.6l28.2-4.8
	c3.9-0.7,6.6-1.4,8.1-1.9c1.7-0.6,2.6-1.3,2.6-2.1v-1.6h-22.7c-6.3,0-11-1.2-13.8-3.7s-4.3-6.4-4.3-11.8V18.8z M316.4,55.1h75.2
	c1.8,0,2.7,1.2,2.7,3.6s-0.9,3.6-2.7,3.6h-75.2c-1.8,0-2.7-1.2-2.7-3.6S314.6,55.1,316.4,55.1z M316.4,65.9h75.2
	c1.8,0,2.7,1.4,2.7,4.1c0,2.7-0.9,4-2.7,4h-75.2c-1.8,0-2.7-1.3-2.7-4C313.7,67.3,314.6,65.9,316.4,65.9z M316.4,77.6h75.2
	c1.8,0,2.7,1.2,2.7,3.6c0,2.3-0.9,3.5-2.7,3.5h-75.2c-1.8,0-2.7-1.2-2.7-3.5C313.7,78.8,314.6,77.6,316.4,77.6z M320.2,13.6v1.6
	h77.6v-1.6c0-0.7-0.9-1.2-2.7-1.5c-1.7-0.3-4.5-0.5-8.2-0.5h-55.9c-3.8,0-6.5,0.2-8.2,0.5C321.1,12.4,320.2,12.9,320.2,13.6z
	 M320.2,23v1.4c0,0.5,0.8,0.9,2.5,1.2c1.8,0.3,4.5,0.4,8.2,0.4h55.9c3.7,0,6.4-0.1,8.2-0.4s2.7-0.7,2.7-1.2V23H320.2z"/>
</svg>
